# xmcd
#
# Track frame offsets: 
#        150
#        15702
#        31107
#        48870
#        67297
#        84430
#        102525
#        117492
#        132395
#        148502
#        161277
#        177695
#        193567
#        212152
#
# Disc length: 3061 seconds
#
# Revision: 1
# Processed by: cddbd v1.5.2PL0 Copyright (c) Steve Scherf et al.
# Submitted via: ExactAudioCopy v0.95a5
#
DISCID=ca0bf30e
DTITLE=Mariah Carey - The emancipation of Mimi
DYEAR=2005
DGENRE=Rhythmic Soul
TTITLE0=It's Like That
TTITLE1=We Belong Together
TTITLE2=Shake It Off
TTITLE3=Mine Again
TTITLE4=Say Somethin' (feat. Snoop Dogg)
TTITLE5=Stay The Night
TTITLE6=Get Your Number (feat. Jermaine Dupri)
TTITLE7=One And Only (feat. Twista)
TTITLE8=Circles
TTITLE9=Your Girl
TTITLE10=I Wish You Knew
TTITLE11=To The Floor (feat. Nelly)
TTITLE12=Joy Ride
TTITLE13=Fly Like A Bird
EXTD=YEAR: 2005
EXTT0=
EXTT1=
EXTT2=
EXTT3=
EXTT4=
EXTT5=
EXTT6=
EXTT7=
EXTT8=
EXTT9=
EXTT10=
EXTT11=
EXTT12=
EXTT13=
PLAYORDER=
